<?xml version="1.0" encoding="UTF-8" standalone="no"?>
<svg width="148px" height="40px" viewBox="0 0 148 40" version="1.1" xmlns="http://www.w3.org/2000/svg" xmlns:xlink="http://www.w3.org/1999/xlink" xmlns:sketch="http://www.bohemiancoding.com/sketch/ns">
    <!-- Generator: Sketch 3.3 (11970) - http://www.bohemiancoding.com/sketch -->
    <title>Group</title>
    <desc>Created with Sketch.</desc>
    <defs></defs>
    <g id="Welcome" stroke="none" stroke-width="1" fill="none" fill-rule="evenodd" sketch:type="MSPage">
        <g id="1.0-search" sketch:type="MSArtboardGroup" transform="translate(-20.000000, -16.000000)">
            <g id="Group" sketch:type="MSLayerGroup" transform="translate(20.000000, 16.000000)">
                <g id="Fill-8-Copy-+-Fill-9-Copy" sketch:type="MSShapeGroup">
                    <path d="M34.0650572,5.84821556 L26.3187281,4.62858526 L19.9807966,0 L13.6428651,4.62858526 L5.89653596,5.84821556 L4.67992133,13.6137458 L0.0627807191,19.9673873 L4.67992133,26.3210288 L5.89653596,34.0864166 L13.6428651,35.3061893 L19.9807966,39.9347746 L26.3187281,35.3061893 L34.0650572,34.0864166 L35.2818139,26.3210288 L39.8988125,19.9673873 L35.2818139,13.6137458 L34.0650572,5.84821556 Z" id="Fill-8-Copy" fill="#23A161"></path>
                    <path d="M31.0922181,23.6467857 L23.553867,23.6467857 L23.553867,31.0530064 L16.4776419,31.0530064 L16.4776419,23.6467857 L9.09001807,23.6467857 L9.09001807,16.553163 L16.4776419,16.553163 L16.4776419,8.99598394 L23.553867,8.99598394 L23.553867,16.553163 L31.0922181,16.553163 L31.0922181,23.6467857" id="Fill-9-Copy" fill="#FFFFFF"></path>
                </g>
                <path d="M66.4033661,30.5651765 L61.536847,30.5651765 L61.536847,21.283098 L53.063388,21.283098 L53.063388,30.5651765 L48.1968689,30.5651765 L48.1968689,8.61088235 L53.063388,8.61088235 L53.063388,17.7876471 L61.536847,17.7876471 L61.536847,8.61088235 L66.4033661,8.61088235 L66.4033661,30.5651765" id="Fill-2" fill="#343A48" sketch:type="MSShapeGroup"></path>
                <path d="M76.4506885,14.6981765 C77.5767377,14.6981765 78.6026393,14.8838824 79.5283934,15.256098 C80.4533333,15.6275098 81.248,16.1605098 81.9115792,16.8534902 C82.5743443,17.5464706 83.0897377,18.3881765 83.4569454,19.377 C83.824153,20.3666275 84.0081639,21.4792549 84.0081639,22.7140784 C84.0081639,23.9601569 83.824153,25.0824314 83.4569454,26.0825098 C83.0897377,27.0817843 82.5743443,27.9307255 81.9115792,28.6285294 C81.248,29.3271373 80.4533333,29.8641569 79.5283934,30.2411961 C78.6026393,30.6174314 77.5767377,30.805549 76.4506885,30.805549 C75.3148689,30.805549 74.2824536,30.6174314 73.3518142,30.2411961 C72.4219891,29.8641569 71.6199945,29.3271373 70.947459,28.6285294 C70.2749235,27.9307255 69.7546448,27.0817843 69.3874372,26.0825098 C69.0202295,25.0824314 68.8362186,23.9601569 68.8362186,22.7140784 C68.8362186,21.4792549 69.0202295,20.3666275 69.3874372,19.377 C69.7546448,18.3881765 70.2749235,17.5464706 70.947459,16.8534902 C71.6199945,16.1605098 72.4219891,15.6275098 73.3518142,15.256098 C74.2824536,14.8838824 75.3148689,14.6981765 76.4506885,14.6981765 L76.4506885,14.6981765 Z M76.4506885,27.3406471 C77.4717049,27.3406471 78.2232186,26.9611961 78.7052295,26.203098 C79.1864262,25.4441961 79.4282459,24.2913725 79.4282459,22.7446275 C79.4282459,21.1978824 79.1864262,20.0474706 78.7052295,19.2941961 C78.2232186,18.5409216 77.4717049,18.1638824 76.4506885,18.1638824 C75.4011749,18.1638824 74.633377,18.5409216 74.1464809,19.2941961 C73.6595847,20.0474706 73.4161366,21.1978824 73.4161366,22.7446275 C73.4161366,24.2913725 73.6595847,25.4441961 74.1464809,26.203098 C74.633377,26.9611961 75.4011749,27.3406471 76.4506885,27.3406471 L76.4506885,27.3406471 Z" id="Fill-3" fill="#343A48" sketch:type="MSShapeGroup"></path>
                <path d="M91.6511311,30.805549 C90.9443989,30.805549 90.3223443,30.6978235 89.7833388,30.4823725 C89.2435191,30.2661176 88.7908197,29.9598235 88.423612,29.5626863 C88.0555902,29.1663529 87.7771311,28.6864118 87.5857923,28.1236667 C87.3952678,27.5617255 87.3000055,26.9338627 87.3000055,26.2408824 L87.3000055,18.1638824 L86.0404262,18.1638824 C85.8108197,18.1638824 85.6154098,18.085902 85.4533825,17.9307451 C85.290541,17.7747843 85.2099344,17.5464706 85.2099344,17.245 L85.2099344,15.4217059 L87.5719508,14.9393529 L88.4447814,11.1271569 C88.5595847,10.6448039 88.8836393,10.4044314 89.4177596,10.4044314 L91.736623,10.4044314 L91.736623,14.969902 L95.3435628,14.969902 L95.3435628,18.1638824 L91.736623,18.1638824 L91.736623,25.9241373 C91.736623,26.285902 91.8204863,26.5841569 91.9873989,26.8205098 C92.1543115,27.0568627 92.3953169,27.1742353 92.7096011,27.1742353 C92.8724426,27.1742353 93.0084153,27.1573529 93.1175191,27.1219804 C93.2274372,27.0866078 93.3226995,27.0464118 93.4041202,27.0013922 C93.485541,26.9563725 93.5612623,26.9161765 93.6329126,26.8808039 C93.7045628,26.8454314 93.7884262,26.8277451 93.8836885,26.8277451 C94.0172186,26.8277451 94.124694,26.8607059 94.2061148,26.9258235 C94.2867213,26.9917451 94.3705847,27.0946471 94.4560765,27.2345294 L95.8019617,29.4501373 C95.2287596,29.9019412 94.5847213,30.2411961 93.8690328,30.467098 C93.1541585,30.693 92.4140437,30.805549 91.6511311,30.805549" id="Fill-4" fill="#343A48" sketch:type="MSShapeGroup"></path>
                <path d="M116.813404,19.5803922 C116.813404,21.1681373 116.552858,22.6320784 116.033393,23.9730196 C115.513115,25.3139608 114.781142,26.4740196 113.835847,27.4531961 C112.891366,28.4323725 111.753104,29.196098 110.422689,29.7435686 C109.091459,30.2910392 107.614486,30.5651765 105.992585,30.5651765 L97.8912186,30.5651765 L97.8912186,8.61088235 L105.992585,8.61088235 C107.614486,8.61088235 109.091459,8.88743137 110.422689,9.43972549 C111.753104,9.99201961 112.891366,10.7557451 113.835847,11.730098 C114.781142,12.704451 115.513115,13.862098 116.033393,15.2030392 C116.552858,16.5439804 116.813404,18.003902 116.813404,19.5803922 L116.813404,19.5803922 Z M111.861393,19.5803922 C111.861393,18.495902 111.727049,17.5159216 111.459989,16.6420588 C111.192929,15.7681961 110.808623,15.0277843 110.307885,14.4200196 C109.807148,13.8122549 109.194049,13.3451765 108.46859,13.0179804 C107.743131,12.6923922 106.917525,12.5283922 105.992585,12.5283922 L102.757738,12.5283922 L102.757738,26.6476667 L105.992585,26.6476667 C106.917525,26.6476667 107.743131,26.4836667 108.46859,26.1572745 C109.194049,25.8308824 109.807148,25.3638039 110.307885,24.7560392 C110.808623,24.1482745 111.192929,23.4078627 111.459989,22.534 C111.727049,21.6601373 111.861393,20.6753333 111.861393,19.5803922 L111.861393,19.5803922 Z" id="Fill-5" fill="#343A48" sketch:type="MSShapeGroup"></path>
                <path d="M125.744448,14.6981765 C126.869683,14.6981765 127.895585,14.8838824 128.821339,15.256098 C129.747093,15.6275098 130.540945,16.1605098 131.204525,16.8534902 C131.868104,17.5464706 132.383497,18.3881765 132.750705,19.377 C133.117913,20.3666275 133.301923,21.4792549 133.301923,22.7140784 C133.301923,23.9601569 133.117913,25.0824314 132.750705,26.0825098 C132.383497,27.0817843 131.868104,27.9307255 131.204525,28.6285294 C130.540945,29.3271373 129.747093,29.8641569 128.821339,30.2411961 C127.895585,30.6174314 126.869683,30.805549 125.744448,30.805549 C124.608628,30.805549 123.576213,30.6174314 122.645574,30.2411961 C121.714934,29.8641569 120.913754,29.3271373 120.241219,28.6285294 C119.567869,27.9307255 119.04759,27.0817843 118.680383,26.0825098 C118.313175,25.0824314 118.129978,23.9601569 118.129978,22.7140784 C118.129978,21.4792549 118.313175,20.3666275 118.680383,19.377 C119.04759,18.3881765 119.567869,17.5464706 120.241219,16.8534902 C120.913754,16.1605098 121.714934,15.6275098 122.645574,15.256098 C123.576213,14.8838824 124.608628,14.6981765 125.744448,14.6981765 L125.744448,14.6981765 Z M125.744448,27.3406471 C126.76465,27.3406471 127.516164,26.9611961 127.998175,26.203098 C128.480186,25.4441961 128.721191,24.2913725 128.721191,22.7446275 C128.721191,21.1978824 128.480186,20.0474706 127.998175,19.2941961 C127.516164,18.5409216 126.76465,18.1638824 125.744448,18.1638824 C124.69412,18.1638824 123.926322,18.5409216 123.439426,19.2941961 C122.953344,20.0474706 122.709896,21.1978824 122.709896,22.7446275 C122.709896,24.2913725 122.953344,25.4441961 123.439426,26.203098 C123.926322,26.9611961 124.69412,27.3406471 125.744448,27.3406471 L125.744448,27.3406471 Z" id="Fill-6" fill="#343A48" sketch:type="MSShapeGroup"></path>
                <path d="M146.440792,18.6462353 C146.306448,18.8174706 146.177803,18.9525294 146.054044,19.0530196 C145.930284,19.1535098 145.753601,19.2033529 145.524809,19.2033529 C145.304973,19.2033529 145.10712,19.1486863 144.930437,19.0377451 C144.753754,18.9276078 144.555902,18.8046078 144.33688,18.6687451 C144.117044,18.5336863 143.85894,18.4106863 143.563383,18.2997451 C143.267825,18.1888039 142.899803,18.1341373 142.46176,18.1341373 C141.917055,18.1341373 141.447257,18.239451 141.051552,18.4500784 C140.655033,18.6615098 140.328536,18.9629804 140.071246,19.3544902 C139.813142,19.746 139.622617,20.2259412 139.498858,20.7935098 C139.374284,21.3610784 139.312404,22.001 139.312404,22.7140784 C139.312404,24.2109804 139.586792,25.3613922 140.135568,26.1653137 C140.684344,26.9684314 141.439929,27.3703922 142.403951,27.3703922 C142.919344,27.3703922 143.327262,27.3028627 143.627705,27.167 C143.928148,27.0319412 144.183809,26.8808039 144.393874,26.7151961 C144.603126,26.5495882 144.796907,26.3960392 144.97359,26.2553529 C145.150273,26.1146667 145.371738,26.0447255 145.638798,26.0447255 C145.992164,26.0447255 146.259224,26.1805882 146.440792,26.4515098 L147.728869,28.1236667 C147.27047,28.6767647 146.788459,29.1261569 146.282836,29.4726471 C145.777213,29.8191373 145.259377,30.0900588 144.730142,30.2862157 C144.200907,30.4823725 143.668415,30.6174314 143.134295,30.693 C142.599361,30.7685686 142.079896,30.805549 141.574273,30.805549 C140.667246,30.805549 139.800929,30.6254706 138.976137,30.2637059 C138.15053,29.9019412 137.425885,29.3769804 136.800574,28.6888235 C136.175262,28.0006667 135.67941,27.1549412 135.312202,26.1500392 C134.94418,25.1459412 134.760984,24.0003529 134.760984,22.7140784 C134.760984,21.5893922 134.920568,20.5370588 135.240552,19.5578824 C135.560536,18.5787059 136.031962,17.7297647 136.657273,17.0110588 C137.282585,16.2931569 138.055268,15.728 138.976137,15.3163922 C139.897005,14.9047843 140.963617,14.6981765 142.175158,14.6981765 C143.339475,14.6981765 144.360492,14.8943333 145.238208,15.2858431 C146.115923,15.6781569 146.908148,16.250549 147.614066,17.0038235 L146.440792,18.6462353" id="Fill-7" fill="#343A48" sketch:type="MSShapeGroup"></path>
            </g>
        </g>
    </g>
</svg>